<svg width="600" height="400" viewBox="0 0 600 400" fill="none" xmlns="http://www.w3.org/2000/svg">
  <rect width="600" height="400" fill="#f8f9fa"/>
  
  <!-- Hospital Building -->
  <rect x="50" y="100" width="500" height="250" fill="#ffffff" stroke="#dee2e6" stroke-width="2"/>
  
  <!-- Building sections -->
  <rect x="70" y="120" width="460" height="40" fill="#0d6efd"/>
  <rect x="70" y="170" width="150" height="150" fill="#e9ecef"/>
  <rect x="240" y="170" width="150" height="150" fill="#e9ecef"/>
  <rect x="410" y="170" width="120" height="150" fill="#e9ecef"/>
  
  <!-- Windows -->
  <rect x="90" y="190" width="30" height="30" fill="#6c757d"/>
  <rect x="130" y="190" width="30" height="30" fill="#6c757d"/>
  <rect x="170" y="190" width="30" height="30" fill="#6c757d"/>
  <rect x="260" y="190" width="30" height="30" fill="#6c757d"/>
  <rect x="300" y="190" width="30" height="30" fill="#6c757d"/>
  <rect x="340" y="190" width="30" height="30" fill="#6c757d"/>
  <rect x="430" y="190" width="30" height="30" fill="#6c757d"/>
  <rect x="470" y="190" width="30" height="30" fill="#6c757d"/>
  
  <!-- More windows -->
  <rect x="90" y="240" width="30" height="30" fill="#6c757d"/>
  <rect x="130" y="240" width="30" height="30" fill="#6c757d"/>
  <rect x="170" y="240" width="30" height="30" fill="#6c757d"/>
  <rect x="260" y="240" width="30" height="30" fill="#6c757d"/>
  <rect x="300" y="240" width="30" height="30" fill="#6c757d"/>
  <rect x="340" y="240" width="30" height="30" fill="#6c757d"/>
  <rect x="430" y="240" width="30" height="30" fill="#6c757d"/>
  <rect x="470" y="240" width="30" height="30" fill="#6c757d"/>
  
  <!-- Entrance -->
  <rect x="270" y="290" width="60" height="60" fill="#0d6efd"/>
  
  <!-- Medical cross -->
  <rect x="285" y="305" width="30" height="8" fill="#ffffff"/>
  <rect x="296" y="295" width="8" height="30" fill="#ffffff"/>
  
  <!-- Text -->
  <text x="300" y="380" text-anchor="middle" font-family="Arial, sans-serif" font-size="18" font-weight="600" fill="#495057">NewWaves Hospital</text>
</svg>
