<svg width="280" height="80" viewBox="0 0 280 80" xmlns="http://www.w3.org/2000/svg">
  <defs>
    <linearGradient id="logoGradient" x1="0%" y1="0%" x2="100%" y2="0%">
      <stop offset="0%" style="stop-color:#ffffff;stop-opacity:1" />
      <stop offset="100%" style="stop-color:#ffd700;stop-opacity:1" />
    </linearGradient>
  </defs>
  
  <!-- Shield icon background -->
  <path d="M20 15 L35 10 L50 15 L50 35 C50 45 35 55 35 55 C35 55 20 45 20 35 Z" fill="url(#logoGradient)" opacity="0.2"/>
  
  <!-- Shield icon -->
  <path d="M22 17 L35 13 L48 17 L48 33 C48 42 35 50 35 50 C35 50 22 42 22 33 Z" fill="none" stroke="url(#logoGradient)" stroke-width="2"/>
  
  <!-- Globe lines inside shield -->
  <circle cx="35" cy="30" r="8" fill="none" stroke="url(#logoGradient)" stroke-width="1"/>
  <path d="M27 30 Q35 22 43 30" fill="none" stroke="url(#logoGradient)" stroke-width="1"/>
  <path d="M27 30 Q35 38 43 30" fill="none" stroke="url(#logoGradient)" stroke-width="1"/>
  <line x1="35" y1="22" x2="35" y2="38" stroke="url(#logoGradient)" stroke-width="1"/>
  
  <!-- Company name -->
  <text x="70" y="25" font-family="serif" font-size="18" font-weight="bold" fill="url(#logoGradient)">GLOBAL</text>
  <text x="70" y="45" font-family="serif" font-size="18" font-weight="bold" fill="url(#logoGradient)">TRUST</text>
  <text x="70" y="65" font-family="serif" font-size="14" font-weight="normal" fill="url(#logoGradient)">FINANCE</text>
  
  <!-- Decorative elements -->
  <circle cx="180" cy="20" r="2" fill="url(#logoGradient)" opacity="0.6"/>
  <circle cx="200" cy="30" r="1.5" fill="url(#logoGradient)" opacity="0.4"/>
  <circle cx="220" cy="25" r="1" fill="url(#logoGradient)" opacity="0.5"/>
  
  <!-- Tagline -->
  <text x="70" y="78" font-family="sans-serif" font-size="8" font-weight="normal" fill="url(#logoGradient)" opacity="0.8">Your Future. Our Trust. Globally Managed.</text>
</svg>

